# xmcd
#
# Track frame offsets: 
#        150
#        15567
#        30612
#        42380
#        56872
#        77735
#        93810
#        112272
#        124647
#        142275
#        156022
#        170047
#        187252
#        202234
#        218870
#        236367
#
# Disc length: 3391 seconds
#
# Revision: 0
# Processed by: cddbd v1.5.2PL0 Copyright (c) Steve Scherf et al.
# Submitted via: ExactAudioCopy v0.95b4
#
DISCID=ed0d3d10
DTITLE=Various Artist - Feelin' Country
DYEAR=2006
DGENRE=Country
TTITLE0=Kenny Chesney - She's Got It All
TTITLE1=Brad Paisley - Me Neither
TTITLE2=Martina McBride - My Baby Love Me
TTITLE3=Mindy McCready - Guys Do It All The Time
TTITLE4=Sara Evans - I Keep Looking
TTITLE5=Lonestar - Smile
TTITLE6=Diamond Rio - How Your Love Makes Me Feel
TTITLE7=Alan Jackson - Dallas
TTITLE8=Clint Black - Nothin' But The Taillights
TTITLE9=Tracy Byrd - Ten Rounds With Jose Cuervo
TTITLE10=Joe Diffie - Third Rock From The Sun
TTITLE11=Carolyn Dawn Johnson - Complicated
TTITLE12=Lorrie Morgan - I Didn't Know My Own Strength
TTITLE13=Ty Herndon - What Mattered Most
TTITLE14=Collin Raye - Love, Me
TTITLE15=Kellie Coffey - When You Lie Next To Me
EXTD=
EXTT0=
EXTT1=
EXTT2=
EXTT3=
EXTT4=
EXTT5=
EXTT6=
EXTT7=
EXTT8=
EXTT9=
EXTT10=
EXTT11=
EXTT12=
EXTT13=
EXTT14=
EXTT15=
PLAYORDER=
